<svg width="217" height="86" viewBox="0 0 217 86" fill="none" xmlns="http://www.w3.org/2000/svg">
<path d="M134.508 42.9939C133.482 42.9939 132.638 42.7172 131.976 42.164C131.314 41.6107 130.983 40.9053 130.983 40.0478C130.983 39.1903 131.314 38.4849 131.976 37.9316C132.638 37.3784 133.482 37.1017 134.508 37.1017C135.534 37.1017 136.362 37.3784 136.99 37.9316C137.652 38.4849 137.983 39.1903 137.983 40.0478C137.983 40.9053 137.652 41.6107 136.99 42.164C136.329 42.7172 135.501 42.9939 134.508 42.9939ZM132.274 67.1017C132.109 67.1017 131.96 67.0603 131.827 66.9773C131.728 66.8666 131.678 66.7421 131.678 66.6038V46.3964C131.678 46.258 131.728 46.1474 131.827 46.0644C131.96 45.9538 132.109 45.8984 132.274 45.8984H136.842C137.007 45.8984 137.139 45.9538 137.239 46.0644C137.371 46.1474 137.437 46.258 137.437 46.3964V66.6038C137.437 66.7421 137.371 66.8666 137.239 66.9773C137.139 67.0603 137.007 67.1017 136.842 67.1017H132.274Z" fill="black"/>
<path d="M129.983 40.8732C129.983 41.016 129.911 41.1446 129.765 41.2589C129.656 41.3446 129.51 41.3875 129.328 41.3875H117.59C117.408 41.3875 117.317 41.4589 117.317 41.6017V49.7017C117.317 49.8446 117.408 49.916 117.59 49.916H124.524C124.706 49.916 124.851 49.9732 124.96 50.0875C125.106 50.1732 125.179 50.2875 125.179 50.4303V53.7303C125.179 53.8732 125.106 54.0017 124.96 54.116C124.851 54.2017 124.706 54.2446 124.524 54.2446H117.59C117.408 54.2446 117.317 54.316 117.317 54.4589V66.5875C117.317 66.7303 117.244 66.8589 117.098 66.9732C116.989 67.0589 116.844 67.1017 116.662 67.1017H111.639C111.457 67.1017 111.293 67.0589 111.147 66.9732C111.038 66.8589 110.983 66.7303 110.983 66.5875V37.616C110.983 37.4732 111.038 37.3589 111.147 37.2732C111.293 37.1589 111.457 37.1017 111.639 37.1017H129.328C129.51 37.1017 129.656 37.1589 129.765 37.2732C129.911 37.3589 129.983 37.4732 129.983 37.616V40.8732Z" fill="black"/>
<path d="M100.394 46.1017C102.798 46.1017 104.664 46.5575 105.992 47.469C107.32 48.3598 107.983 49.582 107.983 51.1356V57.4125C107.983 59.0076 107.32 60.2505 105.992 61.1413C104.664 62.0321 102.798 62.4775 100.394 62.4775C99.5689 62.4775 98.7256 62.3946 97.8644 62.2289C97.0032 62.0424 96.2318 61.7524 95.55 61.3588C95.4782 61.3174 95.4064 61.307 95.3347 61.3277C95.2629 61.3485 95.227 61.3899 95.227 61.452V67.7289C95.227 67.8324 95.1553 67.9153 95.0117 67.9775C94.9041 68.0603 94.7606 68.1017 94.5811 68.1017H89.6293C89.4499 68.1017 89.2884 68.0603 89.1449 67.9775C89.0372 67.9153 88.9834 67.8324 88.9834 67.7289V46.7232C88.9834 46.6196 89.0372 46.5368 89.1449 46.4746C89.2884 46.3918 89.4499 46.3503 89.6293 46.3503H94.5811C94.7606 46.3503 94.9041 46.3918 95.0117 46.4746C95.1553 46.5368 95.227 46.6196 95.227 46.7232V47.0961C95.227 47.1582 95.2629 47.1997 95.3347 47.2204C95.4423 47.2204 95.55 47.179 95.6576 47.0961C96.9135 46.4332 98.4924 46.1017 100.394 46.1017ZM101.794 51.4153C101.794 50.7524 101.489 50.2138 100.879 49.7995C100.269 49.3852 99.4612 49.178 98.4565 49.178C97.4877 49.178 96.6982 49.3852 96.0882 49.7995C95.5141 50.2138 95.227 50.7524 95.227 51.4153V57.1639C95.227 57.8268 95.5141 58.3654 96.0882 58.7797C96.6982 59.1733 97.4877 59.3701 98.4565 59.3701C99.4612 59.3701 100.269 59.1733 100.879 58.7797C101.489 58.3654 101.794 57.8268 101.794 57.1639V51.4153Z" fill="black"/>
<path d="M86.9834 60.5856C86.9834 60.6931 86.9269 60.7899 86.8139 60.8759C86.7292 60.9405 86.6162 60.9727 86.4749 60.9727H77.1105C76.9693 60.9727 76.8987 61.0265 76.8987 61.134V62.5856C76.8987 63.2523 77.1388 63.8007 77.619 64.2308C78.0992 64.6609 78.7207 64.8759 79.4834 64.8759C80.1331 64.8759 80.684 64.7254 81.1359 64.4243C81.6162 64.1017 81.9269 63.6931 82.0681 63.1985C82.1529 62.9835 82.3365 62.8759 82.619 62.8759L86.3902 63.005C86.5314 63.005 86.6444 63.048 86.7292 63.134C86.8422 63.1985 86.8845 63.2953 86.8563 63.4243C86.6585 64.9297 85.9382 66.091 84.6953 66.9082C83.4523 67.7039 81.715 68.1017 79.4834 68.1017C77.167 68.1017 75.3309 67.6394 73.9749 66.7146C72.6472 65.7684 71.9834 64.4888 71.9834 62.8759V56.3276C71.9834 54.7577 72.6472 53.4996 73.9749 52.5534C75.3309 51.5856 77.167 51.1017 79.4834 51.1017C81.7998 51.1017 83.6218 51.5856 84.9495 52.5534C86.3054 53.4996 86.9834 54.7577 86.9834 56.3276V60.5856ZM79.4834 54.3276C78.7207 54.3276 78.0992 54.5426 77.619 54.9727C77.1388 55.4028 76.8987 55.9512 76.8987 56.6179V58.0695C76.8987 58.177 76.9693 58.2308 77.1105 58.2308H81.8987C82.0399 58.2308 82.1105 58.177 82.1105 58.0695V56.6179C82.1105 55.9297 81.8704 55.3813 81.3902 54.9727C80.91 54.5426 80.2744 54.3276 79.4834 54.3276Z" fill="black"/>
<path d="M71.9834 46.5856C71.9834 46.6931 71.9307 46.7899 71.8252 46.8759C71.7461 46.9405 71.6407 46.9727 71.5088 46.9727H62.7687C62.6369 46.9727 62.571 47.0265 62.571 47.134V48.5856C62.571 49.2523 62.7951 49.8007 63.2433 50.2308C63.6915 50.6609 64.2715 50.8759 64.9834 50.8759C65.5898 50.8759 66.1039 50.7254 66.5258 50.4243C66.974 50.1017 67.264 49.6931 67.3958 49.1985C67.4749 48.9835 67.6463 48.8759 67.91 48.8759L71.4297 49.005C71.5616 49.005 71.667 49.048 71.7461 49.134C71.8516 49.1985 71.8911 49.2953 71.8648 49.4243C71.6802 50.9297 71.0079 52.091 69.8478 52.9082C68.6877 53.7039 67.0663 54.1017 64.9834 54.1017C62.8214 54.1017 61.1077 53.6394 59.8422 52.7146C58.603 51.7684 57.9834 50.4888 57.9834 48.8759V42.3276C57.9834 40.7577 58.603 39.4996 59.8422 38.5534C61.1077 37.5856 62.8214 37.1017 64.9834 37.1017C67.1454 37.1017 68.8459 37.5856 70.0851 38.5534C71.3506 39.4996 71.9834 40.7577 71.9834 42.3276V46.5856ZM64.9834 40.3276C64.2715 40.3276 63.6915 40.5426 63.2433 40.9727C62.7951 41.4028 62.571 41.9512 62.571 42.6179V44.0695C62.571 44.177 62.6369 44.2308 62.7687 44.2308H67.2376C67.3695 44.2308 67.4354 44.177 67.4354 44.0695V42.6179C67.4354 41.9297 67.2113 41.3813 66.7631 40.9727C66.3148 40.5426 65.7216 40.3276 64.9834 40.3276Z" fill="black"/>
<path d="M49.7075 67.1017C49.5064 67.1017 49.3254 67.0589 49.1644 66.9732C49.0437 66.8589 48.9834 66.7303 48.9834 66.5875V37.616C48.9834 37.4732 49.0437 37.3589 49.1644 37.2732C49.3254 37.1589 49.5064 37.1017 49.7075 37.1017H55.2593C55.4604 37.1017 55.6213 37.1589 55.742 37.2732C55.9029 37.3589 55.9834 37.4732 55.9834 37.616V66.5875C55.9834 66.7303 55.9029 66.8589 55.742 66.9732C55.6213 67.0589 55.4604 67.1017 55.2593 67.1017H49.7075Z" fill="black"/>
<path d="M36.5345 67.1017C33.7083 67.1017 31.4269 66.4034 29.6904 65.0068C27.9538 63.6101 27.0855 61.7805 27.0855 59.5179V58.4286C27.0855 58.2889 27.1366 58.1772 27.2388 58.0934C27.375 57.9816 27.5282 57.9258 27.6985 57.9258H32.3463C32.5166 57.9258 32.6528 57.9816 32.7549 58.0934C32.8911 58.1772 32.9592 58.2889 32.9592 58.4286V59.2665C32.9592 60.3559 33.2827 61.2358 33.9296 61.9062C34.6106 62.5766 35.4789 62.9118 36.5345 62.9118C37.59 62.9118 38.4583 62.6045 39.1393 61.99C39.8203 61.3476 40.1608 60.5096 40.1608 59.476C40.1608 58.7498 39.9735 58.1213 39.599 57.5906C39.2244 57.0598 38.6967 56.5571 38.0157 56.0822C37.3347 55.6073 36.245 54.923 34.7468 54.0291C33.0443 53.0235 31.6653 52.1297 30.6097 51.3476C29.5882 50.5654 28.72 49.6297 28.0049 48.5403C27.3239 47.423 26.9834 46.1381 26.9834 44.6855C26.9834 42.3671 27.8347 40.5235 29.5372 39.1548C31.2397 37.7861 33.487 37.1017 36.2791 37.1017C39.1053 37.1017 41.3866 37.828 43.1232 39.2805C44.8597 40.7051 45.728 42.6045 45.728 44.9788V45.9844C45.728 46.1241 45.6599 46.2498 45.5237 46.3615C45.4216 46.4453 45.2854 46.4872 45.1151 46.4872H40.5183C40.3481 46.4872 40.1949 46.4453 40.0587 46.3615C39.9565 46.2498 39.9054 46.1241 39.9054 45.9844V44.895C39.9054 43.8057 39.5649 42.9397 38.8839 42.2973C38.237 41.6269 37.3687 41.2917 36.2791 41.2917C35.2576 41.2917 34.4234 41.599 33.7764 42.2135C33.1295 42.8001 32.806 43.6241 32.806 44.6855C32.806 45.6911 33.1465 46.5431 33.8275 47.2414C34.5425 47.9397 35.9216 48.9034 37.9646 50.1325C40.0416 51.3895 41.608 52.423 42.6635 53.233C43.7191 54.0152 44.5363 54.8811 45.1151 55.8308C45.694 56.7805 45.9834 57.9118 45.9834 59.2247C45.9834 61.599 45.1151 63.5124 43.3786 64.9649C41.642 66.3895 39.3606 67.1017 36.5345 67.1017Z" fill="black"/>
<path d="M197.495 54.4561C197.495 54.395 197.513 54.3462 197.55 54.3095C197.599 54.2607 197.653 54.2363 197.715 54.2363H199.4C199.461 54.2363 199.51 54.2607 199.546 54.3095C199.595 54.3462 199.62 54.395 199.62 54.4561V66.8386C199.62 66.8997 199.595 66.9546 199.546 67.0035C199.51 67.0401 199.461 67.0584 199.4 67.0584H197.715C197.653 67.0584 197.599 67.0401 197.55 67.0035C197.513 66.9546 197.495 66.8997 197.495 66.8386V66.6188C197.495 66.5822 197.483 66.5577 197.458 66.5455C197.434 66.5333 197.409 66.5394 197.385 66.5638C196.945 66.9912 196.396 67.2049 195.736 67.2049C194.918 67.2049 194.283 66.9363 193.831 66.399C193.379 65.8617 193.154 65.1412 193.154 64.2375V60.5191C193.154 59.591 193.379 58.8644 193.831 58.3394C194.295 57.8143 194.93 57.5517 195.736 57.5517C196.017 57.5517 196.304 57.6067 196.597 57.7166C196.89 57.8143 197.153 57.9791 197.385 58.2111C197.409 58.2356 197.434 58.2417 197.458 58.2294C197.483 58.2172 197.495 58.1928 197.495 58.1562V54.4561ZM196.396 65.3732C196.689 65.3732 196.933 65.2816 197.128 65.0985C197.324 64.9031 197.446 64.6466 197.495 64.3291V60.4275C197.446 60.11 197.324 59.8597 197.128 59.6765C196.933 59.4811 196.689 59.3834 196.396 59.3834C196.054 59.3834 195.779 59.5056 195.571 59.7498C195.364 59.9818 195.26 60.2932 195.26 60.684V64.0727C195.26 64.4635 195.364 64.781 195.571 65.0252C195.779 65.2572 196.054 65.3732 196.396 65.3732Z" fill="black"/>
<path d="M191.493 57.5883C191.823 57.5883 192.079 57.6494 192.263 57.7715C192.36 57.8325 192.397 57.9241 192.373 58.0463L192.079 59.7498C192.067 59.8963 191.982 59.939 191.823 59.878C191.652 59.8291 191.493 59.8047 191.347 59.8047C191.2 59.8047 191.066 59.823 190.944 59.8597C190.602 59.9085 190.321 60.1039 190.101 60.4458C189.894 60.7755 189.79 61.1724 189.79 61.6365V66.8203C189.79 66.8813 189.765 66.9363 189.717 66.9851C189.68 67.0217 189.631 67.0401 189.57 67.0401H187.885C187.824 67.0401 187.769 67.0217 187.72 66.9851C187.683 66.9363 187.665 66.8813 187.665 66.8203V57.918C187.665 57.857 187.683 57.8081 187.72 57.7715C187.769 57.7226 187.824 57.6982 187.885 57.6982H189.57C189.631 57.6982 189.68 57.7226 189.717 57.7715C189.765 57.8081 189.79 57.857 189.79 57.918V58.7606C189.79 58.8095 189.802 58.84 189.826 58.8522C189.851 58.8522 189.869 58.8278 189.881 58.7789C190.211 57.9852 190.748 57.5883 191.493 57.5883Z" fill="black"/>
<path d="M182.873 67.2049C181.859 67.2049 181.059 66.9363 180.473 66.399C179.899 65.8617 179.612 65.1351 179.612 64.2192V60.5374C179.612 59.6338 179.905 58.9133 180.491 58.376C181.077 57.8265 181.871 57.5517 182.873 57.5517C183.886 57.5517 184.686 57.8265 185.272 58.376C185.858 58.9133 186.151 59.6338 186.151 60.5374V64.2192C186.151 65.1351 185.858 65.8617 185.272 66.399C184.698 66.9363 183.898 67.2049 182.873 67.2049ZM182.873 65.3549C183.214 65.3549 183.489 65.2389 183.697 65.0069C183.917 64.7626 184.027 64.4451 184.027 64.0544V60.684C184.027 60.3054 183.917 59.994 183.697 59.7498C183.489 59.5055 183.214 59.3834 182.873 59.3834C182.531 59.3834 182.256 59.5055 182.048 59.7498C181.841 59.9818 181.737 60.2932 181.737 60.684V64.0544C181.737 64.4451 181.841 64.7626 182.048 65.0069C182.256 65.2389 182.531 65.3549 182.873 65.3549Z" fill="black"/>
<path d="M175.126 67.2049C174.125 67.2049 173.331 66.9363 172.745 66.399C172.171 65.8617 171.884 65.1351 171.884 64.2192V60.5191C171.884 59.6277 172.171 58.9133 172.745 58.376C173.331 57.8265 174.125 57.5517 175.126 57.5517C176.128 57.5517 176.922 57.8204 177.508 58.3577C178.094 58.8828 178.387 59.5544 178.387 60.3726V60.629C178.387 60.6901 178.362 60.745 178.314 60.7939C178.277 60.8305 178.228 60.8488 178.167 60.8488L176.482 60.9221C176.335 60.9221 176.262 60.8488 176.262 60.7023V60.5191C176.262 60.2138 176.152 59.9513 175.932 59.7315C175.725 59.4994 175.456 59.3834 175.126 59.3834C174.797 59.3834 174.528 59.5055 174.32 59.7498C174.113 59.994 174.009 60.3054 174.009 60.684V64.0727C174.009 64.4512 174.113 64.7626 174.32 65.0069C174.528 65.2511 174.797 65.3732 175.126 65.3732C175.456 65.3732 175.725 65.2633 175.932 65.0435C176.152 64.8115 176.262 64.5367 176.262 64.2192V64.036C176.262 63.975 176.28 63.9261 176.317 63.8895C176.366 63.8407 176.421 63.8162 176.482 63.8162L178.167 63.8345C178.228 63.8345 178.277 63.859 178.314 63.9078C178.362 63.9444 178.387 63.9933 178.387 64.0544V64.3841C178.387 65.2267 178.094 65.9105 177.508 66.4356C176.922 66.9485 176.128 67.2049 175.126 67.2049Z" fill="black"/>
<path d="M170.57 62.937C170.57 62.9981 170.545 63.053 170.496 63.1019C170.46 63.1385 170.411 63.1568 170.35 63.1568H166.302C166.241 63.1568 166.21 63.1873 166.21 63.2484V64.0727C166.21 64.4512 166.314 64.7626 166.521 65.0069C166.729 65.2511 166.998 65.3732 167.327 65.3732C167.608 65.3732 167.846 65.2877 168.042 65.1168C168.249 64.9336 168.384 64.7016 168.445 64.4207C168.481 64.2986 168.561 64.2375 168.683 64.2375L170.313 64.3108C170.374 64.3108 170.423 64.3352 170.46 64.3841C170.508 64.4207 170.527 64.4757 170.515 64.5489C170.429 65.4037 170.118 66.0632 169.58 66.5272C169.043 66.979 168.292 67.2049 167.327 67.2049C166.326 67.2049 165.532 66.9424 164.946 66.4173C164.372 65.88 164.085 65.1534 164.085 64.2375V60.5191C164.085 59.6277 164.372 58.9133 164.946 58.376C165.532 57.8265 166.326 57.5517 167.327 57.5517C168.329 57.5517 169.116 57.8265 169.69 58.376C170.276 58.9133 170.57 59.6277 170.57 60.5191V62.937ZM167.327 59.3834C166.998 59.3834 166.729 59.5055 166.521 59.7498C166.314 59.994 166.21 60.3054 166.21 60.684V61.5082C166.21 61.5693 166.241 61.5998 166.302 61.5998H168.371C168.433 61.5998 168.463 61.5693 168.463 61.5082V60.684C168.463 60.2932 168.359 59.9818 168.152 59.7498C167.944 59.5055 167.669 59.3834 167.327 59.3834Z" fill="black"/>
<path d="M161.009 67.0584C160.887 67.0584 160.808 66.9973 160.771 66.8752L159.214 61.6182C159.19 61.5693 159.159 61.5449 159.123 61.5449H158.152C158.091 61.5449 158.06 61.5754 158.06 61.6365V66.8386C158.06 66.8997 158.036 66.9546 157.987 67.0035C157.95 67.0401 157.901 67.0584 157.84 67.0584H156.155C156.094 67.0584 156.039 67.0401 155.99 67.0035C155.954 66.9546 155.935 66.8997 155.935 66.8386V54.4561C155.935 54.395 155.954 54.3462 155.99 54.3095C156.039 54.2607 156.094 54.2363 156.155 54.2363H159.599C160.246 54.2363 160.814 54.395 161.302 54.7125C161.803 55.0178 162.188 55.4574 162.456 56.0314C162.737 56.5931 162.878 57.2403 162.878 57.973C162.878 58.7301 162.731 59.3834 162.438 59.933C162.145 60.4825 161.736 60.8977 161.211 61.1785C161.162 61.1907 161.144 61.2274 161.156 61.2884L162.951 66.802C162.963 66.8264 162.969 66.8569 162.969 66.8935C162.969 67.0035 162.902 67.0584 162.768 67.0584H161.009ZM158.152 56.068C158.091 56.068 158.06 56.0985 158.06 56.1596V59.8047C158.06 59.8658 158.091 59.8963 158.152 59.8963H159.269C159.709 59.8963 160.063 59.7254 160.331 59.3834C160.612 59.0415 160.753 58.5775 160.753 57.9913C160.753 57.4052 160.612 56.9411 160.331 56.5992C160.063 56.2451 159.709 56.068 159.269 56.068H158.152Z" fill="black"/>
<path d="M20.3869 74.1592C18.2457 73.5501 13.3357 71.7042 8.55958 68.4832C6.03478 66.7805 4.70634 64.0162 3.16966 62.175C1.84863 60.5921 1.92832 58.4786 2.38517 56.9419C2.60532 56.2014 3.75572 56.0144 4.68327 56.0098C6.54877 56.0005 8.37961 57.2327 9.91629 58.7647C11.5688 60.4123 11.1576 65.2068 10.7008 69.6692C10.5492 71.15 9.33023 70.7813 8.55497 70.1675C5.04849 67.3916 2.55591 61.8842 1.16229 57.408C0.837919 56.3662 1.00539 55.1099 1.61452 54.4823C4.93573 51.0605 12.0529 52.0089 16.8152 52.618C18.9092 52.8858 20.0547 54.4454 20.6823 55.6821C21.3099 56.9189 21.3099 58.1371 20.853 58.1556C19.033 58.2291 17.9319 54.7869 17.1613 52.9456C16.4483 51.242 18.2273 49.2493 19.6071 47.5603C20.9864 45.8719 23.1465 45.2438 24.6832 45.5437C25.5352 45.71 25.6107 47.6711 25.3108 48.7602C25.0108 49.8492 24.0971 50.4583 23.1696 50.4676C22.242 50.4768 21.3283 49.8677 20.7054 48.9447C18.1436 45.1495 18.5411 39.7339 20.6823 34.6439C21.8179 31.9444 24.9924 31.3998 26.6813 31.3952C28.5224 31.3902 28.9979 34.4639 29.1548 34.4778C30.0632 34.5579 28.398 30.8368 28.541 28.9679C28.6841 27.099 29.5978 26.1853 32.2005 25.5623C38.9391 23.9493 45.2876 25.5392 48.361 28.1465C50.9938 30.38 51.1482 33.541 51.3051 34.3163C51.6133 35.8389 49.9207 29.877 50.3776 26.8036C50.7167 24.5222 53.2987 23.4072 55.1353 22.0228C56.1851 21.2315 58.1902 21.5521 59.893 22.3136C63.5013 23.927 64.9922 27.0805 65.4537 29.074C65.6997 30.1371 65.6106 31.3721 65.306 31.3906C63.8007 31.4818 63.7647 27.1082 64.6784 24.0348C65.6216 20.8622 70.216 21.5521 72.0572 21.7044C76.9486 22.109 82.2049 26.4621 84.2169 29.8447C85.3057 31.6752 86.2196 33.541 86.2242 34.7731C86.2259 35.2106 85.0106 34.787 84.2353 33.8687C80.7251 29.7107 81.3004 25.8715 81.9095 23.8733C82.5292 21.8407 86.8195 22.4751 89.7406 22.9319C93.6669 23.546 93.9076 29.8401 94.0691 35.6868C94.0838 36.2185 93.2985 30.8184 93.9076 25.2808C94.124 23.3138 95.735 23.398 96.8195 23.7026C102.031 25.1662 104.983 31.6859 105.758 34.4686C106.074 35.6012 104.374 31.409 104.831 29.4109C105.22 27.7072 108.056 28.0127 109.897 28.3172C113.974 28.9915 117.276 32.6089 119.902 36.4575C120.565 37.429 120.673 38.7556 120.677 38.9263C120.699 39.7273 120.064 34.8054 120.52 30.8091C120.705 29.1944 121.891 28.6403 122.971 28.3265C125.198 27.6792 127.438 28.6218 129.279 30.0016C131.276 31.498 132.366 33.541 132.828 35.9914C133.114 37.5094 132.985 39.66 132.528 40.3015C132.071 40.9429 131.157 40.0292 130.686 39.1017C128.977 35.7337 129.597 32.6365 130.516 31.0999C131.432 29.5659 133.898 29.8585 135.739 30.1631C139.816 30.8373 143.118 34.4547 146.662 38.3033C148.48 40.2769 148.674 43.3795 148.522 44.6208C148.223 47.0589 148.361 38.4879 149.74 36.3329C150.278 35.4934 151.425 36.0052 152.2 36.619C155.414 39.1637 155.744 44.2932 155.906 49.0693C155.943 50.1638 155.449 51.0675 155.139 50.929C153.78 50.3205 154.212 46.4897 154.669 43.5687C154.971 41.6342 157.894 41.5521 159.736 41.0906C161.528 40.6413 163.432 41.5428 165.273 42.9226C166.238 43.6458 167.115 44.607 167.585 45.8391C168.056 47.0712 168.056 48.594 167.599 49.0739C167.142 49.5539 166.229 48.9447 165.758 47.7172C165.287 46.4897 165.287 44.6623 166.049 43.7209C169.147 39.8901 176.325 41.8566 180.811 43.0795C182.8 43.6217 183.432 46.4621 184.355 48.3033C184.794 49.1787 184.669 50.1445 184.212 50.7675C183.755 51.3905 182.841 51.6951 182.371 51.0906C181.9 50.486 181.9 48.9632 182.357 47.7219C182.814 46.4805 183.727 45.5668 185.264 45.0961C186.801 44.6254 188.933 44.6254 190.488 45.0823C192.043 45.5391 192.957 46.4528 193.58 47.3804C194.729 49.0919 194.821 51.3813 194.364 52.7703C194.212 53.2336 192.994 52.0273 192.523 50.6429C192.052 49.2585 192.052 47.4311 192.509 46.3375C194.345 41.9431 203.718 45.8437 207.728 46.7758C209.73 47.2412 211.12 49.2308 212.043 51.5289C212.572 52.8462 212.357 54.7407 211.9 55.8344C211.443 56.9281 210.529 57.2327 209.906 56.9327C209.283 56.6328 208.979 55.7191 209.583 55.2484C210.188 54.7777 211.711 54.7777 212.647 55.3868C214.499 56.5911 214.812 59.6877 215.582 61.9904C215.93 63.0301 215.439 63.9885 214.825 64.7638C214.212 65.539 213.298 66.1482 212.218 66.462C211.138 66.7758 209.92 66.7758 208.988 66.3189C208.056 65.8621 207.447 64.9484 207.285 64.9345C206.377 64.8567 207.742 67.6895 207.285 69.5307C206.732 71.7585 204.059 72.6179 201.457 73.0794C197.392 73.8001 193.907 72.6272 192.218 71.0951C191.326 70.2853 190.834 68.9539 190.215 68.7831C188.832 68.4012 187.447 71.0766 185.605 71.8473C181.862 73.4141 178.227 66.4804 174.835 65.5437C173.362 65.137 173.289 68.6124 172.371 70.3014C171.386 72.1124 168.988 72.6179 167.147 72.7748C163.098 73.1199 161.291 69.5538 160.829 69.2354C158.581 67.6839 160.063 75.0729 158.684 76.6096C158.022 77.3469 156.999 77.5371 156.072 77.2372C153.973 76.5586 152.68 74.1684 151.909 73.2409C151.806 73.1162 152.052 74.1408 150.382 74.6115C140.751 77.3251 137.608 73.5501 135.919 73.084C134.241 72.6207 131.776 75.0821 128.241 74.6253C125.826 74.3133 124.992 71.3996 124.069 70.929C122.027 69.8876 123.451 75.9958 122.532 77.5325C120.537 80.8721 113.935 77.5556 109.925 75.8574C108.971 75.4534 108.084 74.7868 107.918 75.0821C107.752 75.3775 108.361 76.5958 108.218 77.5279C108.075 78.4601 107.161 79.0692 106.081 79.383C103.854 80.0303 101.614 79.3922 100.077 78.4739C99.3267 78.0253 99.1499 76.9465 98.5361 76.1712C97.9224 75.3959 97.0087 74.7868 96.538 75.6913C96.0673 76.5958 96.0673 79.0323 95.6104 80.4398C95.1536 81.8472 94.2399 82.1518 93.3123 82.3087C89.6649 82.9257 85.3244 80.3244 81.3142 77.2464C80.4279 76.5661 79.473 76.3189 79.1546 76.6188C78.2711 77.4511 79.4545 79.6876 78.6931 81.3765C78.2465 82.3672 76.4089 82.7609 75.1675 82.9224C73.0258 83.2011 71.1574 82.161 69.3161 81.2427C67.1753 80.175 66.2289 77.8602 65.9197 76.9326C65.6198 76.0328 66.5335 80.6013 65.9244 83.3701C65.6834 84.4652 64.097 84.3115 63.0125 83.8546C58.5565 81.9774 56.6951 78.7831 55.9244 77.8556C55.3421 77.1547 56.0767 80.6105 55.1584 82.1472C54.2417 83.6812 51.4713 83.3885 48.4071 82.7794C40.026 81.1133 38.2364 76.9372 37.6181 76.0097C37.6088 75.9958 38.218 76.9096 38.0749 77.8371C37.9319 78.7646 37.0182 79.6783 36.0906 79.9968C34.3491 80.5946 32.3943 79.3922 30.7053 78.4739C28.8942 77.4892 28.0842 75.0914 27.4658 74.1638C26.8659 73.264 28.6933 77.2233 28.2365 78.9169C28.0648 79.5534 26.8659 79.0877 26.0907 78.4739C24.7063 76.9465 23.7741 75.0914 23.3126 73.0978C23.1557 72.018 23.1557 70.7997 23.1557 69.5446" stroke="black" stroke-width="2" stroke-linecap="round"/>
<path d="M29.6162 34.4732C25.9337 29.2586 22.8604 22.512 20.7007 17.5697C20.1916 16.4046 20.3869 14.8148 20.8438 13.7257C22.5787 9.5899 29.5978 10.7908 34.2078 9.71094C36.007 9.2895 38.7902 9.55404 40.5068 10.0109C43.1156 10.7052 44.3739 13.2365 45.7583 15.8392C46.5817 17.3872 46.229 19.9647 45.7721 21.5245C44.5144 25.8186 39.7777 25.5484 37.9364 25.8576C37.0217 26.0112 36.0952 25.5577 35.3199 24.9439C33.7036 23.6644 33.0034 21.5614 32.5419 19.5678C32.2958 18.5048 32.385 17.2697 33.1464 16.6422C34.9744 15.1355 37.9134 16.3191 39.6023 17.2374C42.528 20.62 44.9923 23.3888 45.4583 25.0777C45.3153 25.853 44.4016 26.4621 43.4602 26.1668" stroke="black" stroke-width="2" stroke-linecap="round"/>
<path d="M21.3097 33.5502C20.3868 28.0311 19.7776 22.4935 19.1593 18.7972C18.4537 14.5794 15.163 11.4184 15.306 5.5762C15.3625 3.27043 18.5317 2.78895 20.3729 2.1752C29.1248 -0.742098 44.3645 2.46592 47.7563 4.3164C51.3778 6.29221 50.8435 12.3044 52.5279 16.0007C53.3555 17.817 53.9169 19.697 54.3783 22.1474C54.6642 23.6654 54.5352 25.8161 53.0124 26.9144C51.4896 28.0127 48.4439 28.0127 46.418 27.5558C41.0898 26.3542 37.9409 22.4935 35.4675 18.6449C34.8595 17.6989 35.1537 16.3468 35.9151 15.7192C36.6765 15.0916 38.1993 15.0916 39.1361 15.5485C40.0729 16.0053 40.3775 16.919 40.6866 17.8466C40.9958 18.7741 41.3004 19.6878 39.7683 20.6292" stroke="black" stroke-width="2" stroke-linecap="round"/>
</svg>
