<svg width="62" height="62" viewBox="0 0 62 62" fill="none" xmlns="http://www.w3.org/2000/svg">
<path d="M3.4856 41.8675L3.25964 41.634" stroke="black"/>
<path d="M23.3288 24.9982C22.3395 26.2921 21.2956 30.7135 21.2269 32.8133C21.3052 33.5189 21.3814 33.755 21.4586 33.9947C21.5371 34.2379 21.6144 34.4776 21.7725 34.6797C22.7925 35.6129 23.8986 36.7627 24.9367 38.3954L24.9857 38.4725C25.9991 40.0666 26.3752 40.6583 26.8478 40.7701C27.8654 41.011 28.9674 41.4774 31.457 41.2119C33.3413 41.011 37.2312 41.1059 38.4798 39.5549C38.8686 39.072 39.625 38.2701 40.0408 37.0508C40.5081 35.6807 41.4354 29.8513 40.4273 26.7254C40.2715 26.2424 39.865 26.039 39.4881 25.6361C38.3908 24.4632 36.1528 22.5335 34.4901 22.1285C33.1633 21.8053 31.9512 20.1305 29.492 20.9605C28.1652 21.4084 26.729 21.9791 25.6299 22.5751C24.6568 23.1028 24.1154 23.9695 23.3288 24.9982Z" fill="white"/>
<path d="M21.2233 33.0228C21.2233 31.0233 22.3053 26.3368 23.3288 24.9982C24.1154 23.9695 24.6568 23.1028 25.6299 22.5751C26.729 21.9791 28.1652 21.4084 29.492 20.9605C31.9512 20.1305 33.1633 21.8053 34.4901 22.1285C36.1528 22.5335 38.3908 24.4632 39.4881 25.6361C39.865 26.039 40.2715 26.2424 40.4273 26.7254C41.4354 29.8513 40.5081 35.6807 40.0408 37.0508C39.625 38.2701 38.8686 39.072 38.4798 39.5549C37.2312 41.1059 33.3413 41.011 31.457 41.2119C28.9674 41.4774 27.8654 41.011 26.8478 40.7701C26.3677 40.6565 25.9871 40.0476 24.9367 38.3954C23.8986 36.7627 22.7925 35.6129 21.7725 34.6797C21.6144 34.4776 21.5371 34.2379 21.4586 33.9947C21.3802 33.7514 21.3029 33.5117 21.2233 32.7807" stroke="black" stroke-width="2" stroke-linecap="round"/>
<path d="M17.1897 21.6597C17.9649 21.4999 19.5271 21.0158 20.5037 20.4118C21.7047 19.6691 22.7264 18.5999 26.7758 16.3826C28.1284 15.642 28.8978 15.3683 29.1718 15.125C29.7758 14.5889 27.345 16.0098 26.3273 16.5339C25.2517 17.0878 22.0518 17.4574 18.8771 18.8311C18.3547 19.0572 18.1312 19.1567 18.0504 19.078C17.3421 18.3884 19.9158 17.0652 20.8164 16.0159C21.454 15.2728 22.183 14.722 22.3809 14.5598C23.8005 13.3965 18.9134 15.5257 17.507 16.6525C17.0082 17.0521 16.4894 17.2201 16.4086 17.1826C13.7683 15.9566 21.0096 13.6739 21.9453 13.2708C22.3377 13.1018 22.5718 13.0275 21.9183 13.0263C17.5298 13.0182 16.0233 15.2013 15.2785 15.3671C14.7394 15.4871 15.8593 14.0781 16.4437 13.554C17.7729 12.3619 20.2297 11.8172 20.8597 11.534C22.8617 10.634 17.1194 12.0544 15.9835 12.6209C14.7221 13.2499 13.4446 13.5092 13.132 13.5105C13.021 13.5109 13.1285 13.1921 13.4001 12.9888C14.772 11.9621 16.0139 11.5751 17.0292 11.0511C18.8221 10.3672 20.6981 9.23676 21.8305 8.83129C22.1057 8.7502 22.3376 8.67032 22.5765 8.58802" stroke="black" stroke-width="2" stroke-linecap="round"/>
<path d="M36.2891 44.6748C37.1416 44.5949 38.8607 44.2729 40.0318 43.669C41.2748 43.0279 42.4488 42.0992 43.5461 41.4892C43.7776 41.3604 44.0133 41.2084 44.0169 41.3258C44.0579 42.6985 42.2287 43.4596 39.5798 45.0318C37.1818 46.4551 35.905 46.529 35.3125 46.8122C32.3622 48.2224 42.6081 45.2412 43.6234 44.5973C45.3398 43.5088 46.7466 42.6583 47.1389 42.737C48.5999 43.03 45.1938 44.5102 44.2558 45.1165C43.321 45.7208 42.149 46.2046 40.3562 46.851C39.494 47.1618 38.7905 47.3375 38.4766 47.4174C37.3552 47.7028 40.9686 47.6619 43.2674 46.8969C44.6203 46.4468 48.2806 44.6893 49.8393 44.3879C54.7995 43.4288 43.3248 47.415 41.8774 48.261C40.5206 49.054 39.3385 49.9978 38.52 50.4009C36.0508 51.6167 48.6179 46.7735 49.2069 46.8522C51.319 47.1343 46.2852 48.7851 45.2722 49.8332C43.2936 51.8806 42.3879 53.6216 37.5176 56.6063C36.5399 57.2054 36.2938 57.3397 36.6767 57.1025C39.6722 55.2468 41.437 54.5221 42.4922 53.6349C43.3504 52.9133 44.0133 51.8593 45.3401 50.7712C46.3655 49.9303 47.9106 48.9594 49.1671 48.0661C49.6344 47.7442 50.1051 47.4198 50.5724 47.0979C50.8078 46.9357 51.0396 46.7759 51.5127 46.1272" stroke="black" stroke-width="2" stroke-linecap="round"/>
<path d="M3.0306 41.6722C2.87602 40.7886 2.25302 39.4984 1.66633 38.5289C1.13495 37.6509 1.00234 36.4338 1 26.5418C0.999329 23.705 2.01413 22.7958 2.79287 21.4244C3.44296 20.2797 4.04238 19.4068 4.62907 18.4373C5.17621 17.5332 5.83642 16.502 6.58004 15.5325C7.32365 14.563 7.63515 13.5972 8.02511 12.6277C8.49934 11.4487 9.04041 10.4503 10.441 9.07901C11.5455 7.99753 13.0922 7.54551 14.3078 6.81688C15.397 6.16401 17.4579 5.12967 19.1477 3.99317C20.0912 3.3586 21.2942 3.26575 22.2322 2.94259C23.196 2.61058 24.2593 2.21518 25.8988 1.77341C27.2305 1.41457 29.248 1.24691 30.8184 1.046C32.526 0.827518 33.6277 1.40668 34.8397 1.72984C35.8338 1.99488 36.9066 2.37495 38.429 2.85908C39.9697 3.34905 40.9678 3.34322 42.1389 3.70632C43.6271 4.16776 44.9494 5.03769 46.1204 5.56177C47.2447 6.06493 48.2283 6.40779 49.0106 7.33491C50.0113 8.52093 50.65 9.47237 51.5084 10.2409C52.4505 11.0845 53.2263 11.893 54.0847 12.6616C55.0268 13.5052 55.8026 14.3137 56.2336 15.2832C56.679 16.2852 57.0533 17.2185 57.366 18.2279C57.7245 19.3854 57.9902 20.6849 58.9246 22.8236L58.9739 22.9363C59.4842 24.1038 59.8735 24.9947 60.1765 25.9342C60.5359 27.0485 60.6461 28.5134 60.8405 30.3241C61.3537 35.1048 60.4915 36.0998 60.1788 37.1092C59.7975 38.3402 59.4001 39.8083 58.9691 40.9424C58.5541 42.0346 58.304 43.2795 57.8379 44.4511L57.8296 44.4721C57.1895 46.081 56.6652 47.3992 55.7312 48.4464C54.8684 49.4139 54.0929 50.222 53.039 51.1491C51.5921 52.4219 50.5798 53.1268 49.0586 54.4558C47.8733 55.4912 47.0666 56.2737 46.09 56.759C44.8875 57.3566 44.0219 57.9682 43.0839 58.3736C42.1717 58.7679 41.0568 59.0187 39.8448 59.141C38.6651 59.26 37.464 59.987 36.3316 60.3102L36.3179 60.3141C35.3305 60.5959 34.0708 60.9555 25.6259 60.9976C23.0934 61.0103 22.009 60.6367 21.0718 60.3138L21.0682 60.3126C20.1302 59.9894 19.1957 59.5077 18.4521 58.7004C17.772 57.962 16.6991 57.3291 15.7201 56.6429C14.8504 56.0332 14.1977 55.2328 13.3393 54.7051C12.4057 54.1311 11.0827 52.7347 9.3601 50.717C8.03876 49.1694 7.25105 48.2128 6.50743 47.3232C5.90398 46.6013 5.14316 45.9519 4.63259 45.0648C4.04706 44.0154 3.65593 43.127 3.50018 42.6441C3.42172 42.4008 3.34444 42.1612 3.2648 41.4301M3.39541 42.0294C3.38672 41.9752 3.356 41.8755 3.30327 41.7681M3.30327 41.7681C3.2929 41.7469 3.28169 41.7255 3.26962 41.7041C3.18361 41.5513 3.02782 41.4436 3.0119 41.329C2.98969 41.1693 2.95405 41.627 2.96965 41.6977C2.97469 41.7205 3.01647 41.6932 3.03255 41.6444C3.04862 41.5957 3.04862 41.5205 3.05383 41.5086C3.06943 41.5504 3.08015 41.6596 3.13217 41.7411C3.16895 41.7606 3.23174 41.7664 3.30327 41.7681ZM3.30327 41.7681C3.33289 41.7688 3.36402 41.7688 3.39541 41.7688" stroke="black" stroke-width="2" stroke-linecap="round"/>
</svg>
